<svg id="Layer_1" data-name="Layer 1" xmlns="http://www.w3.org/2000/svg" xmlns:xlink="http://www.w3.org/1999/xlink" viewBox="0 0 321 325.21"><title>wheel</title><g id="electron_ring"><circle cx="158.04" cy="159.8" r="75" style="fill:none;stroke:#000;stroke-miterlimit:10;stroke-width:2px"/><circle cx="158.39" cy="234.39" r="5" style="fill:#0054a4"/><circle cx="94.39" cy="121.39" r="5" style="fill:#0054a4"/><circle cx="222.39" cy="121.39" r="5" style="fill:#0054a4"/></g><g id="stage_group"><text transform="translate(118.12 154.86)" style="font-size:24px;font-family:Montserrat-Medium, Montserrat"><tspan style="letter-spacing:-0.009989420572916666em">S</tspan><tspan x="14.66" y="0" style="letter-spacing:-0.03497314453125em">T</tspan><tspan x="27.91" y="0" style="letter-spacing:-0.009969075520833334em">A</tspan><tspan x="45.24" y="0">GE</tspan></text><text transform="translate(151.89 183.41)" style="font-size:24px;font-family:Montserrat-Medium, Montserrat">3</text></g><g id="wheel_group"><image width="321" height="321" transform="translate(0 4.21)" xlink:href="wheel1.png" style="opacity:0.75"/><path d="M153.5,34.55a130,130,0,1,0,130,130A130,130,0,0,0,153.5,34.55Zm.5,235.5a105,105,0,1,1,105-105A105,105,0,0,1,154,270.05Z" transform="translate(4.04 -2.96)"/><g id="develop_group"><path d="M35.27,90.87a140.07,140.07,0,0,1,238,.76L234,113.74a95,95,0,0,0-159.7-.32Z" transform="translate(4.04 -2.96)" style="fill:#393b3d"/><text transform="translate(107.88 57.82)" style="font-size:22px;fill:#fff;font-family:Montserrat-Medium, Montserrat">D<tspan x="18.17" y="0" style="letter-spacing:-0.009987571022727272em">E</tspan><tspan x="32.69" y="0" style="letter-spacing:-0.015003551136363636em">V</tspan><tspan x="48.03" y="0" style="letter-spacing:-0.00004438920454545455em">E</tspan><tspan x="62.77" y="0" style="letter-spacing:-0.013006036931818182em">L</tspan><tspan x="75.55" y="0" style="letter-spacing:0.00004438920454545455em">OP</tspan></text></g><g id="explore_group"><path d="M29.91,100.24l39,22.56A95,95,0,0,0,149.72,260v45A140.06,140.06,0,0,1,29.91,100.24Z" transform="translate(4.04 -2.96)" style="fill:#393b3d"/><text transform="matrix(0.5, 0.87, -0.87, 0.5, 28.56, 178)" style="font-size:22px;fill:#fff;font-family:Montserrat-Medium, Montserrat"><tspan style="letter-spacing:-0.007990056818181818em">E</tspan><tspan x="14.56" y="0" style="letter-spacing:-0.022993607954545456em">X</tspan><tspan x="28.86" y="0" style="letter-spacing:-0.009987571022727272em">P</tspan><tspan x="44.53" y="0" style="letter-spacing:-0.012983842329545454em">L</tspan><tspan x="57.31" y="0">ORE</tspan></text></g><g id="expand_group"><path d="M157.72,305V260a95,95,0,0,0,81.12-137.71l38.85-22.85a140,140,0,0,1-120,205.6Z" transform="translate(4.04 -2.96)" style="fill:#0054a4"/><text transform="matrix(0.5, -0.87, 0.87, 0.5, 236.22, 268.73)" style="font-size:22px;fill:#fff;font-family:Montserrat-Medium, Montserrat;letter-spacing:-0.007990056818181818em">E<tspan x="14.56" y="0" style="letter-spacing:-0.022993607954545456em">X</tspan><tspan x="28.86" y="0" style="letter-spacing:-0.044988458806818184em">P</tspan><tspan x="43.76" y="0" style="letter-spacing:-0.000022194602272727273em">AND</tspan></text></g></g><g id="expand_arrow"><polygon points="226.86 200.87 218.49 213.07 233.25 214.22 226.86 200.87" style="fill:#f97352"/><polygon points="282.93 246.03 272.21 261.66 291.11 263.12 282.93 246.03" style="fill:#f97352"/></g><g id="explore_arrow"><polygon points="95.51 209.36 85.93 198.08 80.95 212.02 95.51 209.36" style="fill:#f97352"/><polygon points="37.23 251.62 24.95 237.18 18.59 255.03 37.23 251.62" style="fill:#f97352"/></g><g id="develop_arrow"><polygon points="164.03 81.46 156.12 68.95 149.24 82.05 164.03 81.46" style="fill:#f97352"/><polygon points="166.4 16.41 156.92 0 147.45 16.41 166.4 16.41" style="fill:#f97352"/></g></svg>